<svg width="318" height="515" viewBox="0 0 318 515" fill="none" xmlns="http://www.w3.org/2000/svg">
<rect opacity="0.4" x="111.168" y="35.5355" width="25" height="25" transform="rotate(45 111.168 35.5355)" stroke="#F8D008" stroke-width="5"/>
<rect opacity="0.4" x="0.000732422" y="490.745" width="8.12514" height="34.0886" transform="rotate(-45 0.000732422 490.745)" fill="#6845AE"/>
<rect opacity="0.4" x="24.1042" y="485.15" width="8.12514" height="34.0886" transform="rotate(45 24.1042 485.15)" fill="#6845AE"/>
<g opacity="0.5">
<circle cx="207.5" cy="2.5" r="2.5" fill="#6B2C88"/>
<circle cx="225.5" cy="2.5" r="2.5" fill="#6B2C88"/>
<circle cx="243.5" cy="2.5" r="2.5" fill="#6B2C88"/>
<circle cx="261.5" cy="2.5" r="2.5" fill="#6B2C88"/>
<circle cx="279.5" cy="2.5" r="2.5" fill="#6B2C88"/>
<circle cx="297.5" cy="2.5" r="2.5" fill="#6B2C88"/>
<circle cx="315.5" cy="2.5" r="2.5" fill="#6B2C88"/>
<circle cx="207.5" cy="23.5" r="2.5" fill="#6B2C88"/>
<circle cx="225.5" cy="23.5" r="2.5" fill="#6B2C88"/>
<circle cx="243.5" cy="23.5" r="2.5" fill="#6B2C88"/>
<circle cx="261.5" cy="23.5" r="2.5" fill="#6B2C88"/>
<circle cx="279.5" cy="23.5" r="2.5" fill="#6B2C88"/>
<circle cx="297.5" cy="23.5" r="2.5" fill="#6B2C88"/>
<circle cx="315.5" cy="23.5" r="2.5" fill="#6B2C88"/>
<circle cx="207.5" cy="44.5" r="2.5" fill="#6B2C88"/>
<circle cx="225.5" cy="44.5" r="2.5" fill="#6B2C88"/>
<circle cx="243.5" cy="44.5" r="2.5" fill="#6B2C88"/>
<circle cx="261.5" cy="44.5" r="2.5" fill="#6B2C88"/>
<circle cx="279.5" cy="44.5" r="2.5" fill="#6B2C88"/>
<circle cx="297.5" cy="44.5" r="2.5" fill="#6B2C88"/>
<circle cx="315.5" cy="44.5" r="2.5" fill="#6B2C88"/>
<circle cx="207.5" cy="65.5" r="2.5" fill="#6B2C88"/>
<circle cx="225.5" cy="65.5" r="2.5" fill="#6B2C88"/>
<circle cx="243.5" cy="65.5" r="2.5" fill="#6B2C88"/>
<circle cx="261.5" cy="65.5" r="2.5" fill="#6B2C88"/>
<circle cx="279.5" cy="65.5" r="2.5" fill="#6B2C88"/>
<circle cx="297.5" cy="65.5" r="2.5" fill="#6B2C88"/>
<circle cx="315.5" cy="65.5" r="2.5" fill="#6B2C88"/>
<circle cx="207.5" cy="86.5" r="2.5" fill="#6B2C88"/>
<circle cx="225.5" cy="86.5" r="2.5" fill="#6B2C88"/>
<circle cx="243.5" cy="86.5" r="2.5" fill="#6B2C88"/>
<circle cx="261.5" cy="86.5" r="2.5" fill="#6B2C88"/>
<circle cx="279.5" cy="86.5" r="2.5" fill="#6B2C88"/>
<circle cx="297.5" cy="86.5" r="2.5" fill="#6B2C88"/>
<circle cx="315.5" cy="86.5" r="2.5" fill="#6B2C88"/>
</g>
</svg>
