<svg width="57" height="56" viewBox="0 0 57 56" fill="none" xmlns="http://www.w3.org/2000/svg">
<path d="M14.6941 25.4463L8.0105 21.5142L28.5001 33.5833L14.6941 25.4463Z" fill="#FFE26E"/>
<path d="M28.5 33.5833L48.9896 21.5142L42.306 25.4463L28.5 33.5833Z" fill="#FFE26E"/>
<path d="M0 16.7918L5.02977 19.7568C5.66121 19.0006 6.55662 18.5127 7.53422 18.3909L28.5 15.816L7.53422 18.3918C6.55662 18.5135 5.66121 19.0019 5.02977 19.7581L8.01041 21.5142L14.694 25.4463L28.5 33.5837L42.306 25.4463L48.9896 21.5142L57 16.7918L28.5 0L0 16.7918Z" fill="#96C9EF"/>
<path d="M6.05937 53.8681L4.10809 43.1354L0.205078 55.8194L6.05937 53.8681Z" fill="#55A2FF"/>
<path d="M8.0105 21.5142V33.3784C8.0105 36.5887 10.6937 39.4667 14.9476 41.428C19.2246 43.271 23.8439 44.1855 28.5001 44.1112V33.5833L8.0105 21.5142Z" fill="#D0E6F8"/>
<path d="M28.5 33.5833V44.1112C33.1562 44.1855 37.7755 43.271 42.0525 41.428C46.3064 39.4667 48.9896 36.5887 48.9896 33.3784V21.5142L28.5 33.5833Z" fill="#DBECFA"/>
<path d="M4.1077 39.2327C3.56889 39.2327 3.13184 38.7957 3.13184 38.2569V22.2652C3.13488 19.8021 4.97136 17.726 7.41623 17.4229L28.3807 14.8471C28.916 14.7814 29.4031 15.1619 29.4688 15.6973C29.5344 16.2322 29.1539 16.7192 28.619 16.7849L7.65411 19.3607C6.1864 19.5407 5.08356 20.7871 5.08312 22.2652V38.2569C5.08312 38.7957 4.64651 39.2327 4.1077 39.2327Z" fill="#57A4FF"/>
<path d="M8.01066 41.1839C8.01066 43.3396 6.26333 45.087 4.10809 45.087C1.95241 45.087 0.205078 43.3396 0.205078 41.1839C0.205078 39.0287 1.95241 37.2814 4.10809 37.2814C6.26333 37.2814 8.01066 39.0287 8.01066 41.1839Z" fill="#398DF3"/>
</svg>
