<svg width="171" height="56" viewBox="0 0 171 56" fill="none" xmlns="http://www.w3.org/2000/svg">
<path d="M14.6941 25.4463L8.0105 21.5142L28.5001 33.5833L14.6941 25.4463Z" fill="#FFE26E"/>
<path d="M28.5 33.5833L48.9896 21.5142L42.306 25.4463L28.5 33.5833Z" fill="#FFE26E"/>
<path d="M0 16.7918L5.02977 19.7568C5.66121 19.0006 6.55662 18.5127 7.53422 18.3909L28.5 15.816L7.53422 18.3918C6.55662 18.5135 5.66121 19.0019 5.02977 19.7581L8.01041 21.5142L14.694 25.4463L28.5 33.5837L42.306 25.4463L48.9896 21.5142L57 16.7918L28.5 0L0 16.7918Z" fill="#96C9EF"/>
<path d="M6.05937 53.8681L4.10809 43.1354L0.205078 55.8194L6.05937 53.8681Z" fill="#55A2FF"/>
<path d="M8.0105 21.5142V33.3784C8.0105 36.5887 10.6937 39.4667 14.9476 41.428C19.2246 43.271 23.8439 44.1855 28.5001 44.1112V33.5833L8.0105 21.5142Z" fill="#D0E6F8"/>
<path d="M28.5 33.5833V44.1112C33.1562 44.1855 37.7755 43.271 42.0525 41.428C46.3064 39.4667 48.9896 36.5887 48.9896 33.3784V21.5142L28.5 33.5833Z" fill="#DBECFA"/>
<path d="M4.1077 39.2327C3.56889 39.2327 3.13184 38.7957 3.13184 38.2569V22.2652C3.13488 19.8021 4.97136 17.726 7.41623 17.4229L28.3807 14.8471C28.916 14.7814 29.4031 15.1619 29.4688 15.6973C29.5344 16.2322 29.1539 16.7192 28.619 16.7849L7.65411 19.3607C6.1864 19.5407 5.08356 20.7871 5.08312 22.2652V38.2569C5.08312 38.7957 4.64651 39.2327 4.1077 39.2327Z" fill="#57A4FF"/>
<path d="M8.01066 41.1839C8.01066 43.3396 6.26333 45.087 4.10809 45.087C1.95241 45.087 0.205078 43.3396 0.205078 41.1839C0.205078 39.0287 1.95241 37.2814 4.10809 37.2814C6.26333 37.2814 8.01066 39.0287 8.01066 41.1839Z" fill="#398DF3"/>
<path d="M81.0508 34H77.4297V19.8906H73.2344C73.1406 20.625 73.0391 21.4258 72.9297 22.293C72.8203 23.1602 72.707 24.0352 72.5898 24.918C72.4727 25.8008 72.3477 26.6406 72.2148 27.4375C72.0898 28.2344 71.9648 28.9336 71.8398 29.5352C71.6367 30.5352 71.3594 31.3867 71.0078 32.0898C70.6641 32.7852 70.1914 33.3164 69.5898 33.6836C68.9961 34.0508 68.2188 34.2344 67.2578 34.2344C66.9375 34.2344 66.6289 34.2109 66.332 34.1641C66.043 34.1172 65.7734 34.0547 65.5234 33.9766V31C65.7266 31.0703 65.9297 31.1289 66.1328 31.1758C66.3359 31.2148 66.5586 31.2344 66.8008 31.2344C67.1133 31.2344 67.3711 31.1328 67.5742 30.9297C67.7852 30.7188 67.9727 30.3633 68.1367 29.8633C68.3008 29.3555 68.4648 28.6562 68.6289 27.7656C68.6992 27.375 68.793 26.8242 68.9102 26.1133C69.0273 25.3945 69.1602 24.5547 69.3086 23.5938C69.457 22.625 69.6094 21.5703 69.7656 20.4297C69.9297 19.2891 70.0859 18.1016 70.2344 16.8672H81.0508V34ZM97 27.4258C97 28.5195 96.8516 29.4883 96.5547 30.332C96.2656 31.1758 95.8398 31.8906 95.2773 32.4766C94.7227 33.0547 94.0508 33.4922 93.2617 33.7891C92.4805 34.0859 91.5977 34.2344 90.6133 34.2344C89.6914 34.2344 88.8438 34.0859 88.0703 33.7891C87.3047 33.4922 86.6367 33.0547 86.0664 32.4766C85.5039 31.8906 85.0664 31.1758 84.7539 30.332C84.4492 29.4883 84.2969 28.5195 84.2969 27.4258C84.2969 25.9727 84.5547 24.7422 85.0703 23.7344C85.5859 22.7266 86.3203 21.9609 87.2734 21.4375C88.2266 20.9141 89.3633 20.6523 90.6836 20.6523C91.9102 20.6523 92.9961 20.9141 93.9414 21.4375C94.8945 21.9609 95.6406 22.7266 96.1797 23.7344C96.7266 24.7422 97 25.9727 97 27.4258ZM87.9414 27.4258C87.9414 28.2852 88.0352 29.0078 88.2227 29.5938C88.4102 30.1797 88.7031 30.6211 89.1016 30.918C89.5 31.2148 90.0195 31.3633 90.6602 31.3633C91.293 31.3633 91.8047 31.2148 92.1953 30.918C92.5938 30.6211 92.8828 30.1797 93.0625 29.5938C93.25 29.0078 93.3438 28.2852 93.3438 27.4258C93.3438 26.5586 93.25 25.8398 93.0625 25.2695C92.8828 24.6914 92.5938 24.2578 92.1953 23.9688C91.7969 23.6797 91.2773 23.5352 90.6367 23.5352C89.6914 23.5352 89.0039 23.8594 88.5742 24.5078C88.1523 25.1562 87.9414 26.1289 87.9414 27.4258ZM109 20.8984V23.582H103.527V34H99.9531V20.8984H109ZM123.344 27.4258C123.344 28.5195 123.195 29.4883 122.898 30.332C122.609 31.1758 122.184 31.8906 121.621 32.4766C121.066 33.0547 120.395 33.4922 119.605 33.7891C118.824 34.0859 117.941 34.2344 116.957 34.2344C116.035 34.2344 115.188 34.0859 114.414 33.7891C113.648 33.4922 112.98 33.0547 112.41 32.4766C111.848 31.8906 111.41 31.1758 111.098 30.332C110.793 29.4883 110.641 28.5195 110.641 27.4258C110.641 25.9727 110.898 24.7422 111.414 23.7344C111.93 22.7266 112.664 21.9609 113.617 21.4375C114.57 20.9141 115.707 20.6523 117.027 20.6523C118.254 20.6523 119.34 20.9141 120.285 21.4375C121.238 21.9609 121.984 22.7266 122.523 23.7344C123.07 24.7422 123.344 25.9727 123.344 27.4258ZM114.285 27.4258C114.285 28.2852 114.379 29.0078 114.566 29.5938C114.754 30.1797 115.047 30.6211 115.445 30.918C115.844 31.2148 116.363 31.3633 117.004 31.3633C117.637 31.3633 118.148 31.2148 118.539 30.918C118.938 30.6211 119.227 30.1797 119.406 29.5938C119.594 29.0078 119.688 28.2852 119.688 27.4258C119.688 26.5586 119.594 25.8398 119.406 25.2695C119.227 24.6914 118.938 24.2578 118.539 23.9688C118.141 23.6797 117.621 23.5352 116.98 23.5352C116.035 23.5352 115.348 23.8594 114.918 24.5078C114.496 25.1562 114.285 26.1289 114.285 27.4258ZM137.137 23.582H132.848V34H129.273V23.582H124.973V20.8984H137.137V23.582ZM143.043 20.8984V26.0781C143.043 26.3438 143.031 26.6797 143.008 27.0859C142.992 27.4844 142.969 27.8906 142.938 28.3047C142.906 28.7188 142.875 29.0898 142.844 29.418C142.812 29.7461 142.789 29.9688 142.773 30.0859L148.82 20.8984H153.121V34H149.664V28.7734C149.664 28.3438 149.68 27.8711 149.711 27.3555C149.742 26.832 149.777 26.3398 149.816 25.8789C149.855 25.418 149.883 25.0703 149.898 24.8359L143.875 34H139.586V20.8984H143.043ZM168.789 20.8984V34H165.203V23.582H160.457V34H156.883V20.8984H168.789Z" fill="white"/>
</svg>
